<?xml version="1.0" encoding="utf-8"?>
<!-- Generator: Adobe Illustrator 19.2.1, SVG Export Plug-In . SVG Version: 6.00 Build 0)  -->
<svg version="1.1" id="Слой_1" xmlns:x="&ns_extend;" xmlns:i="&ns_ai;" xmlns:graph="&ns_graphs;"
	 xmlns="http://www.w3.org/2000/svg" xmlns:xlink="http://www.w3.org/1999/xlink" x="0px" y="0px" viewBox="0 0 300 100"
	 enable-background="new 0 0 300 100" xml:space="preserve">
<metadata>
	<sfw  xmlns="&ns_sfw;">
		<slices></slices>
		<sliceSourceBounds  bottomLeftOrigin="true" height="100" width="300" x="0" y="-100"></sliceSourceBounds>
	</sfw>
</metadata>
<g>
	<radialGradient id="SVGID_1_" cx="57.7351" cy="50" r="51.3059" gradientUnits="userSpaceOnUse">
		<stop  offset="0" style="stop-color:#DDEEEE"/>
		<stop  offset="0.2809" style="stop-color:#DAEBEB"/>
		<stop  offset="0.5065" style="stop-color:#D0E1E1"/>
		<stop  offset="0.713" style="stop-color:#BFD0D0"/>
		<stop  offset="0.9068" style="stop-color:#A7B8B8"/>
		<stop  offset="1" style="stop-color:#99AAAA"/>
	</radialGradient>
	<polygon fill="url(#SVGID_1_)" points="30.311,97.5 2.887,50 30.311,2.5 85.159,2.5 112.583,50 85.159,97.5 	"/>
	<path fill="#BBCCCC" d="M83.716,5l25.981,45L83.716,95H31.754L5.774,50L31.754,5H83.716 M86.603,0H28.868L0,50l28.867,50h57.735
		l28.868-50L86.603,0L86.603,0z"/>
</g>
<g>
	<radialGradient id="SVGID_2_" cx="242.2651" cy="50" r="51.3058" gradientUnits="userSpaceOnUse">
		<stop  offset="0" style="stop-color:#DDEEEE"/>
		<stop  offset="0.2809" style="stop-color:#DAEBEB"/>
		<stop  offset="0.5065" style="stop-color:#D0E1E1"/>
		<stop  offset="0.713" style="stop-color:#BFD0D0"/>
		<stop  offset="0.9068" style="stop-color:#A7B8B8"/>
		<stop  offset="1" style="stop-color:#99AAAA"/>
	</radialGradient>
	<polygon fill="url(#SVGID_2_)" points="214.841,97.5 187.417,50 214.841,2.5 269.689,2.5 297.113,50 269.689,97.5 	"/>
	<path fill="#BBCCCC" d="M268.246,5l25.981,45l-25.981,45h-51.962l-25.981-45l25.981-45H268.246 M271.132,0h-57.735L184.53,50
		l28.868,50h57.735L300,50L271.132,0L271.132,0z"/>
</g>
<g>
	<path fill="#BBCCCC" d="M208.397,5v90H91.603V5H208.397 M213.397,0H86.603v100h126.795V0L213.397,0z"/>
</g>
<g>
	<linearGradient id="SVGID_3_" gradientUnits="userSpaceOnUse" x1="150" y1="95" x2="150" y2="5">
		<stop  offset="0" style="stop-color:#ACBDBD"/>
		<stop  offset="0.092" style="stop-color:#BFD0D0"/>
		<stop  offset="0.2098" style="stop-color:#D0E1E1"/>
		<stop  offset="0.3391" style="stop-color:#DAEBEB"/>
		<stop  offset="0.5" style="stop-color:#DDEEEE"/>
		<stop  offset="0.6609" style="stop-color:#DAEBEB"/>
		<stop  offset="0.7902" style="stop-color:#D0E1E1"/>
		<stop  offset="0.908" style="stop-color:#BFD0D0"/>
		<stop  offset="1" style="stop-color:#ACBDBD"/>
	</linearGradient>
	<rect x="57.735" y="5" fill="url(#SVGID_3_)" width="184.53" height="90"/>
</g>
</svg>
